<svg width="134" height="701" viewBox="0 0 134 701" fill="none" xmlns="http://www.w3.org/2000/svg">
<path d="M243 2C191.272 12.4237 83.9361 66.4186 68.4177 199.008C49.0197 364.746 -16.1979 306.72 6.8791 452.305C25.3407 568.773 171.985 631.014 243 647.576" stroke="#5DCCF0" stroke-opacity="0.5" stroke-width="3"/>
<path d="M255 26.322C203.272 36.7458 95.9361 90.7407 80.4177 223.331C61.0197 389.068 -4.19788 331.042 18.8791 476.627C37.3407 593.095 183.985 655.336 255 671.898" stroke="#5DCCF0" stroke-opacity="0.5" stroke-width="3"/>
<path d="M266 53.4237C214.272 63.8475 106.936 117.842 91.4177 250.432C72.0197 416.17 6.80212 358.144 29.8791 503.729C48.3407 620.197 194.985 682.438 266 699" stroke="#5DCCF0" stroke-opacity="0.5" stroke-width="3"/>
</svg>
