<svg width="918" height="703" viewBox="0 0 918 703" fill="none" xmlns="http://www.w3.org/2000/svg">
<path d="M124.302 -14.8048C113.069 71.6628 137.728 266.804 326.22 355.626C561.835 466.653 442.205 541.103 669.862 575.499C851.987 603.016 1019.86 402.472 1081.04 298.76" stroke="#5DCCF0" stroke-opacity="0.5" stroke-width="3"/>
<path d="M166.535 -21.8757C155.303 64.5919 179.962 259.733 368.454 348.555C604.069 459.582 484.439 534.032 712.095 568.428C894.221 595.945 1062.1 395.401 1123.27 291.689" stroke="#5DCCF0" stroke-opacity="0.5" stroke-width="3"/>
<path d="M212.373 -26.0228C201.141 60.4448 225.8 255.586 414.292 344.408C649.907 455.435 530.277 529.885 757.933 564.281C940.059 591.798 1107.93 391.254 1169.11 287.542" stroke="#5DCCF0" stroke-opacity="0.5" stroke-width="3"/>
</svg>
