<svg width="16" height="16" viewBox="0 0 16 16" fill="none" xmlns="http://www.w3.org/2000/svg">
<path d="M15.9845 4.70294C15.9469 3.85127 15.8091 3.26888 15.6119 2.76164C15.4084 2.22309 15.0952 1.74403 14.6882 1.34325C14.2874 0.936204 13.8021 0.619961 13.2729 0.422701C12.7626 0.22544 12.1833 0.0876712 11.3316 0.0500978C10.4737 0.00939335 10.2013 0 8.02832 0C5.85533 0 5.58292 0.00939334 4.73126 0.0469667C3.87959 0.0845401 3.2972 0.222309 2.78996 0.419569C2.25454 0.623092 1.77235 0.933072 1.37157 1.34325C0.964524 1.74403 0.648281 2.22935 0.451021 2.75851C0.253761 3.26888 0.115992 3.84814 0.0784182 4.6998C0.0377137 5.55773 0.0283203 5.82701 0.0283203 8C0.0283203 10.173 0.0377137 10.4454 0.075287 11.2971C0.11286 12.1487 0.25063 12.7311 0.44789 13.2384C0.651412 13.7769 0.967655 14.256 1.37157 14.6568C1.77235 15.0638 2.25767 15.38 2.78683 15.5773C3.2972 15.7746 3.87646 15.9123 4.72812 15.9499C5.57979 15.9875 5.85219 15.9969 8.02519 15.9969C10.1982 15.9969 10.4706 15.9875 11.3223 15.9499C12.1739 15.9123 12.7563 15.7746 13.2635 15.5773C14.3375 15.1609 15.1892 14.3123 15.6056 13.2352C15.8029 12.7249 15.9406 12.1456 15.9782 11.2939C16.0158 10.4391 16.0252 10.1699 16.0252 7.99687C16.0252 5.82387 16.0221 5.55773 15.9845 4.70294ZM8.02832 12.1112C5.75826 12.1112 3.91717 10.2701 3.91717 8C3.91717 5.72994 5.76139 3.89198 8.02832 3.89198C10.2984 3.89198 12.1395 5.73307 12.1395 8.00313C12.1395 10.2732 10.2984 12.1112 8.02832 12.1112ZM12.3023 4.68728C11.7731 4.68728 11.3442 4.25832 11.3442 3.72916C11.3442 3.2 11.7731 2.77104 12.3023 2.77104C12.8315 2.77104 13.2604 3.2 13.2604 3.72916C13.2635 4.25832 12.8315 4.68728 12.3023 4.68728ZM10.696 8C10.696 9.47162 9.50308 10.6677 8.02832 10.6677C6.5567 10.6677 5.36061 9.47476 5.36061 8C5.36061 6.52524 6.55356 5.33229 8.02832 5.33229C9.50308 5.33542 10.696 6.52838 10.696 8Z" fill="#FFF"/>
</svg>
