<svg width="26" height="25" viewBox="0 0 26 25" fill="none" xmlns="http://www.w3.org/2000/svg">
<path d="M0.612793 25L2.39545 18.3154C1.38481 16.4853 0.858435 14.4361 0.858435 12.3516C0.851417 5.53985 6.3538 0 13.1195 0C19.8852 0 25.3876 5.53985 25.3876 12.3516C25.3876 19.1634 19.8852 24.7032 13.1195 24.7032C11.0912 24.7032 9.08394 24.1874 7.28724 23.2052L0.612793 25ZM7.62412 20.6967L8.04523 20.9511C9.58926 21.8768 11.3438 22.3643 13.1195 22.3643C18.6008 22.3643 23.0645 17.8703 23.0645 12.3516C23.0645 6.83296 18.6008 2.33889 13.1195 2.33889C7.63816 2.33889 3.17449 6.83296 3.17449 12.3516C3.17449 14.1747 3.67981 15.9695 4.62729 17.5452L4.88697 17.9692L3.89036 21.7001L7.62412 20.6967Z" fill="white"/>
<path fill-rule="evenodd" clip-rule="evenodd" d="M17.6812 14.0687C17.1759 13.7649 16.5161 13.4257 15.9266 13.673C15.4704 13.8638 15.1756 14.5775 14.8809 14.9449C14.7265 15.1357 14.551 15.164 14.3124 15.065C12.5999 14.3796 11.2875 13.2278 10.34 11.638C10.1786 11.3906 10.2067 11.1999 10.4032 10.9667C10.6909 10.6275 11.0489 10.2459 11.1261 9.78663C11.2033 9.32733 10.9927 8.79737 10.8032 8.3946C10.5646 7.87877 10.2979 7.13683 9.77853 6.84005C9.30129 6.57154 8.67665 6.71993 8.25555 7.06617C7.52564 7.66679 7.17473 8.59952 7.18174 9.53225C7.18174 9.7937 7.21684 10.0622 7.28 10.3166C7.42739 10.9313 7.70812 11.5037 8.02395 12.0478C8.26257 12.4576 8.52225 12.8533 8.80298 13.242C9.72239 14.4927 10.8594 15.5809 12.1788 16.4005C12.8385 16.8104 13.5474 17.1637 14.2843 17.411C15.1125 17.6866 15.8424 17.9692 16.7337 17.7996C17.6672 17.623 18.5866 17.0436 18.9585 16.1391C19.0708 15.8706 19.12 15.5738 19.0638 15.2912C18.9375 14.6976 18.1514 14.3514 17.6812 14.0687Z" fill="white"/>
</svg>
